<svg width="420" height="221" viewBox="0 0 420 221" fill="none" xmlns="http://www.w3.org/2000/svg">
<path d="M67.75 219H0.420456V0.818175H70.733C91.8977 0.818175 110.009 5.18608 125.065 13.9219C140.122 22.5866 151.663 35.0511 159.689 51.3153C167.714 67.5085 171.727 86.8977 171.727 109.483C171.727 132.21 167.679 151.777 159.582 168.183C151.486 184.518 139.696 197.089 124.213 205.896C108.73 214.632 89.9091 219 67.75 219ZM26.8409 195.562H66.0455C84.0852 195.562 99.0355 192.082 110.896 185.122C122.757 178.162 131.599 168.254 137.423 155.399C143.247 142.544 146.159 127.239 146.159 109.483C146.159 91.8693 143.283 76.706 137.53 63.9929C131.777 51.2088 123.183 41.4077 111.749 34.5895C100.314 27.7003 86.0739 24.2557 69.0284 24.2557H26.8409V195.562ZM216.045 219V0.818175H242.466V195.562H343.886V219H216.045ZM414.625 0.818175L412.494 157.636H387.778L385.648 0.818175H414.625ZM400.136 220.705C394.881 220.705 390.371 218.822 386.607 215.058C382.842 211.294 380.96 206.784 380.96 201.528C380.96 196.273 382.842 191.763 386.607 187.999C390.371 184.234 394.881 182.352 400.136 182.352C405.392 182.352 409.902 184.234 413.666 187.999C417.43 191.763 419.312 196.273 419.312 201.528C419.312 205.009 418.425 208.205 416.649 211.116C414.945 214.028 412.636 216.372 409.724 218.148C406.884 219.852 403.688 220.705 400.136 220.705Z" fill="#FF0000"/>
</svg>
